<?xml version="1.0" encoding="UTF-8"?>
<svg version="1.1" xmlns="http://www.w3.org/2000/svg" width="844" height="800">
<path d="M0 0 C28.71 0 57.42 0 87 0 C87 64.35 87 128.7 87 195 C115.38 195 143.76 195 173 195 C173 137.91 173 80.82 173 22 C180.26 22 187.52 22 195 22 C195 14.74 195 7.48 195 0 C245.16 0 295.32 0 347 0 C347 7.26 347 14.52 347 22 C354.26 22 361.52 22 369 22 C369.02255381 30.45767731 369.0409167 38.91533141 369.05181217 47.37303066 C369.05704031 51.29988658 369.06413669 55.22672094 369.07543945 59.15356445 C369.0862708 62.94014257 369.09227736 66.7266999 369.09487724 70.51329231 C369.09673105 71.96104319 369.10035081 73.40879288 369.10573006 74.85653496 C369.11294367 76.87757135 369.11340808 78.89862848 369.11352539 80.91967773 C369.115746 82.07217514 369.11796661 83.22467255 369.12025452 84.41209412 C369 87 369 87 368 88 C365.97505769 88.09409479 363.9468013 88.11743122 361.91967773 88.11352539 C359.96776772 88.11341209 359.96776772 88.11341209 357.97642517 88.11329651 C356.54548098 88.10818909 355.11453718 88.10297308 353.68359375 88.09765625 C352.2277074 88.09579203 350.77182043 88.09436815 349.31593323 88.09336853 C345.47720621 88.08954365 341.63851681 88.07971364 337.79980469 88.06866455 C333.88542184 88.05844978 329.97103294 88.05387077 326.05664062 88.04882812 C318.37107459 88.03809133 310.68554735 88.02049479 303 88 C303 80.74 303 73.48 303 66 C288.81 66 274.62 66 260 66 C260 79.86 260 93.72 260 108 C264.89960571 107.99214478 264.89960571 107.99214478 269.89819336 107.98413086 C280.66297298 107.96759739 291.42775314 107.95652976 302.19254208 107.94818783 C308.72236233 107.9429583 315.25216963 107.93585939 321.78198242 107.92456055 C328.07781159 107.91373415 334.37362826 107.90772369 340.66946602 107.90512276 C343.07734944 107.90326806 345.48523214 107.8996466 347.89311028 107.89426994 C351.25289286 107.8870628 354.6126231 107.88600892 357.97241211 107.88647461 C358.97869659 107.88287933 359.98498108 107.87928406 361.02175903 107.87557983 C361.93186234 107.8769545 362.84196564 107.87832916 363.77964783 107.87974548 C364.97290884 107.87836279 364.97290884 107.87836279 366.19027615 107.87695217 C368 108 368 108 369 109 C369.09616807 110.68291696 369.12187691 112.36989561 369.12025452 114.05555725 C369.12231651 115.69837929 369.12231651 115.69837929 369.12442017 117.37438965 C369.12082489 118.58639038 369.11722961 119.79839111 369.11352539 121.04711914 C369.11367142 122.31522934 369.11381744 123.58333954 369.1139679 124.88987732 C369.11425585 128.37732422 369.10835945 131.86473701 369.10139394 135.35217595 C369.09516007 138.99303723 369.09455658 142.63389922 369.09336853 146.27476501 C369.09025531 153.17376972 369.08204205 160.07275865 369.07201904 166.9717564 C369.06085761 174.82410685 369.05534738 182.67645803 369.05032361 190.52881444 C369.03985943 206.68588579 369.02205971 222.84294027 369 239 C361.74 239 354.48 239 347 239 C347 246.26 347 253.52 347 261 C296.84 261 246.68 261 195 261 C195 253.74 195 246.48 195 239 C188.07 239 181.14 239 174 239 C174 246.26 174 253.52 174 261 C116.58 261 59.16 261 0 261 C0 174.87 0 88.74 0 0 Z M260 174 C260 180.93 260 187.86 260 195 C266.93 195 273.86 195 281 195 C281 188.07 281 181.14 281 174 C274.07 174 267.14 174 260 174 Z " fill="#010000" transform="translate(43,302)"/>
<path d="M0 0 C21.78 0 43.56 0 66 0 C66 21.45 66 42.9 66 65 C87.12 65 108.24 65 130 65 C130 86.78 130 108.56 130 131 C108.88 131 87.76 131 66 131 C66 152.45 66 173.9 66 196 C44.22 196 22.44 196 0 196 C0 174.55 0 153.1 0 131 C-14.19 131 -28.38 131 -43 131 C-43 173.9 -43 216.8 -43 261 C-49.93 261 -56.86 261 -64 261 C-64 275.19 -64 289.38 -64 304 C-71.26 304 -78.52 304 -86 304 C-86 311.26 -86 318.52 -86 326 C-136.16 326 -186.32 326 -238 326 C-238 318.74 -238 311.48 -238 304 C-245.26 304 -252.52 304 -260 304 C-260 289.81 -260 275.62 -260 261 C-267.26 261 -274.52 261 -282 261 C-282 196.32 -282 131.64 -282 65 C-252.96 65 -223.92 65 -194 65 C-194 115.16 -194 165.32 -194 217 C-187.07 217 -180.14 217 -173 217 C-173 231.19 -173 245.38 -173 260 C-166.07 260 -159.14 260 -152 260 C-152 245.81 -152 231.62 -152 217 C-144.74 217 -137.48 217 -130 217 C-130 166.84 -130 116.68 -130 65 C-87.1 65 -44.2 65 0 65 C0 43.55 0 22.1 0 0 Z " fill="#000000" transform="translate(714,237)"/>
<path d="M0 0 C14.52 0 29.04 0 44 0 C44 50.16 44 100.32 44 152 C50.93 152 57.86 152 65 152 C65 166.19 65 180.38 65 195 C86.45 195 107.9 195 130 195 C130 180.81 130 166.62 130 152 C137.26 152 144.52 152 152 152 C152 101.84 152 51.68 152 0 C166.19 0 180.38 0 195 0 C195 50.16 195 100.32 195 152 C188.07 152 181.14 152 174 152 C174 166.19 174 180.38 174 195 C166.74 195 159.48 195 152 195 C152 202.26 152 209.52 152 217 C116.36 217 80.72 217 44 217 C44 209.74 44 202.48 44 195 C36.74 195 29.48 195 22 195 C22 180.81 22 166.62 22 152 C14.74 152 7.48 152 0 152 C0 101.84 0 51.68 0 0 Z " fill="#ED007B" transform="translate(454,324)"/>
<path d="M0 0 C35.64 0 71.28 0 108 0 C108 7.26 108 14.52 108 22 C115.26 22 122.52 22 130 22 C130 28.93 130 35.86 130 43 C115.48 43 100.96 43 86 43 C86 36.07 86 29.14 86 22 C64.55 22 43.1 22 21 22 C21 79.09 21 136.18 21 195 C42.45 195 63.9 195 86 195 C86 173.55 86 152.1 86 130 C79.07 130 72.14 130 65 130 C65 123.07 65 116.14 65 109 C86.45 109 107.9 109 130 109 C130 137.38 130 165.76 130 195 C122.74 195 115.48 195 108 195 C108 202.26 108 209.52 108 217 C72.36 217 36.72 217 0 217 C0 209.74 0 202.48 0 195 C-7.26 195 -14.52 195 -22 195 C-22 137.91 -22 80.82 -22 22 C-14.74 22 -7.48 22 0 22 C0 14.74 0 7.48 0 0 Z " fill="#ED007B" transform="translate(260,324)"/>
<path d="M0 0 C14.19 0 28.38 0 43 0 C43 64.35 43 128.7 43 195 C71.71 195 100.42 195 130 195 C130 202.26 130 209.52 130 217 C87.1 217 44.2 217 0 217 C0 145.39 0 73.78 0 0 Z " fill="#EE007C" transform="translate(65,324)"/>
<path d="M0 0 C6.93 0 13.86 0 21 0 C21 21.45 21 42.9 21 65 C42.45 65 63.9 65 86 65 C86 72.26 86 79.52 86 87 C64.55 87 43.1 87 21 87 C21 108.45 21 129.9 21 152 C14.07 152 7.14 152 0 152 C0 130.55 0 109.1 0 87 C-21.45 87 -42.9 87 -65 87 C-65 79.74 -65 72.48 -65 65 C-43.55 65 -22.1 65 0 65 C0 43.55 0 22.1 0 0 Z " fill="#ED007B" transform="translate(736,259)"/>
</svg>
