<?xml version="1.0" encoding="UTF-8"?>
<svg version="1.1" xmlns="http://www.w3.org/2000/svg" width="1152" height="512">
<path d="M0 0 C39.27 0 78.54 0 119 0 C119 87.45 119 174.9 119 265 C157.61 265 196.22 265 236 265 C236 187.12 236 109.24 236 29 C245.57 29 255.14 29 265 29 C265 19.43 265 9.86 265 0 C333.64 0 402.28 0 473 0 C473 9.57 473 19.14 473 29 C482.9 29 492.8 29 503 29 C503 58.7 503 88.4 503 119 C473.3 119 443.6 119 413 119 C413 109.1 413 99.2 413 89 C393.86 89 374.72 89 355 89 C355 108.14 355 127.28 355 147 C403.84 147 452.68 147 503 147 C503 205.74 503 264.48 503 325 C493.1 325 483.2 325 473 325 C473 334.9 473 344.8 473 355 C404.36 355 335.72 355 265 355 C265 345.1 265 335.2 265 325 C255.76 325 246.52 325 237 325 C237 334.9 237 344.8 237 355 C158.79 355 80.58 355 0 355 C0 237.85 0 120.7 0 0 Z M355 237 C355 246.24 355 255.48 355 265 C364.57 265 374.14 265 384 265 C384 255.76 384 246.52 384 237 C374.43 237 364.86 237 355 237 Z " fill="#010000" transform="translate(59,123)"/>
<path d="M0 0 C29.7 0 59.4 0 90 0 C90 29.37 90 58.74 90 89 C119.04 89 148.08 89 178 89 C178 118.37 178 147.74 178 178 C148.96 178 119.92 178 90 178 C90 207.37 90 236.74 90 267 C60.3 267 30.6 267 0 267 C0 237.63 0 208.26 0 178 C-19.14 178 -38.28 178 -58 178 C-58 236.41 -58 294.82 -58 355 C-67.57 355 -77.14 355 -87 355 C-87 374.47 -87 393.94 -87 414 C-96.9 414 -106.8 414 -117 414 C-117 423.9 -117 433.8 -117 444 C-185.64 444 -254.28 444 -325 444 C-325 434.1 -325 424.2 -325 414 C-334.57 414 -344.14 414 -354 414 C-354 394.53 -354 375.06 -354 355 C-363.9 355 -373.8 355 -384 355 C-384 267.22 -384 179.44 -384 89 C-344.73 89 -305.46 89 -265 89 C-265 156.98 -265 224.96 -265 295 C-255.1 295 -245.2 295 -235 295 C-235 314.47 -235 333.94 -235 354 C-225.43 354 -215.86 354 -206 354 C-206 334.53 -206 315.06 -206 295 C-196.43 295 -186.86 295 -177 295 C-177 227.02 -177 159.04 -177 89 C-118.59 89 -60.18 89 0 89 C0 59.63 0 30.26 0 0 Z " fill="#000000" transform="translate(974,34)"/>
<path d="M0 0 C19.47 0 38.94 0 59 0 C59 67.98 59 135.96 59 206 C68.9 206 78.8 206 89 206 C89 225.47 89 244.94 89 265 C118.04 265 147.08 265 177 265 C177 245.53 177 226.06 177 206 C186.9 206 196.8 206 207 206 C207 138.02 207 70.04 207 0 C226.47 0 245.94 0 266 0 C266 68.31 266 136.62 266 207 C256.43 207 246.86 207 237 207 C237 226.47 237 245.94 237 266 C227.1 266 217.2 266 207 266 C207 275.57 207 285.14 207 295 C158.16 295 109.32 295 59 295 C59 285.43 59 275.86 59 266 C49.43 266 39.86 266 30 266 C30 246.2 30 226.4 30 206 C20.1 206 10.2 206 0 206 C0 138.02 0 70.04 0 0 Z " fill="#EE007C" transform="translate(620,153)"/>
<path d="M0 0 C48.51 0 97.02 0 147 0 C147 9.57 147 19.14 147 29 C156.9 29 166.8 29 177 29 C177 38.9 177 48.8 177 59 C157.53 59 138.06 59 118 59 C118 49.1 118 39.2 118 29 C88.63 29 59.26 29 29 29 C29 107.21 29 185.42 29 266 C58.37 266 87.74 266 118 266 C118 236.63 118 207.26 118 177 C108.1 177 98.2 177 88 177 C88 167.1 88 157.2 88 147 C117.37 147 146.74 147 177 147 C177 186.27 177 225.54 177 266 C167.1 266 157.2 266 147 266 C147 275.57 147 285.14 147 295 C98.16 295 49.32 295 -1 295 C-1 285.43 -1 275.86 -1 266 C-10.57 266 -20.14 266 -30 266 C-30 187.79 -30 109.58 -30 29 C-20.1 29 -10.2 29 0 29 C0 19.43 0 9.86 0 0 Z " fill="#EF007C" transform="translate(355,153)"/>
<path d="M0 0 C19.47 0 38.94 0 59 0 C59 87.78 59 175.56 59 266 C97.94 266 136.88 266 177 266 C177 275.57 177 285.14 177 295 C118.59 295 60.18 295 0 295 C0 197.65 0 100.3 0 0 Z " fill="#EF007C" transform="translate(89,153)"/>
<path d="M0 0 C9.9 0 19.8 0 30 0 C30 29.37 30 58.74 30 89 C59.04 89 88.08 89 118 89 C118 98.57 118 108.14 118 118 C88.96 118 59.92 118 30 118 C30 147.37 30 176.74 30 207 C20.1 207 10.2 207 0 207 C0 177.63 0 148.26 0 118 C-29.04 118 -58.08 118 -88 118 C-88 108.43 -88 98.86 -88 89 C-58.96 89 -29.92 89 0 89 C0 59.63 0 30.26 0 0 Z " fill="#EE007C" transform="translate(1004,64)"/>
</svg>
