<?xml version="1.0" encoding="UTF-8"?>
<svg version="1.1" xmlns="http://www.w3.org/2000/svg" width="512" height="457">
<path d="M0 0 C0.94258759 0.00291284 1.88517519 0.00582568 2.85632604 0.00882679 C4.34606252 0.00754515 4.34606252 0.00754515 5.86589468 0.00623763 C9.22095361 0.00457982 12.57596343 0.0101091 15.93101782 0.01555592 C18.32522353 0.01583775 20.71942934 0.01568013 23.113635 0.01511341 C28.28215861 0.0148851 33.45067094 0.01773642 38.61919111 0.02335125 C46.09208468 0.03146419 53.56497213 0.03408126 61.03786962 0.03533924 C73.16094721 0.03753009 85.28401809 0.04419106 97.40709203 0.05364186 C109.18638857 0.06281513 120.96568328 0.06989638 132.74498266 0.07414967 C133.83334846 0.07454375 133.83334846 0.07454375 134.94370145 0.0749458 C138.58356012 0.0762508 142.2234188 0.07751452 145.86327749 0.0787577 C176.07914055 0.08913133 206.29499488 0.10702495 236.5108518 0.12908131 C236.5108518 9.03908131 236.5108518 17.94908131 236.5108518 27.12908131 C245.4208518 27.12908131 254.3308518 27.12908131 263.5108518 27.12908131 C263.5108518 36.03908131 263.5108518 44.94908131 263.5108518 54.12908131 C281.3308518 54.12908131 299.1508518 54.12908131 317.5108518 54.12908131 C317.5108518 99.00908131 317.5108518 143.88908131 317.5108518 190.12908131 C210.2608518 190.12908131 103.0108518 190.12908131 -7.4891482 190.12908131 C-7.4891482 181.21908131 -7.4891482 172.30908131 -7.4891482 163.12908131 C-16.3991482 163.12908131 -25.3091482 163.12908131 -34.4891482 163.12908131 C-34.4891482 136.06908131 -34.4891482 109.00908131 -34.4891482 81.12908131 C-25.5791482 81.12908131 -16.6691482 81.12908131 -7.4891482 81.12908131 C-7.49438502 78.71088063 -7.49962183 76.29267994 -7.50501734 73.80120045 C-7.52155325 65.83039781 -7.53261943 57.85959444 -7.54096037 49.88877922 C-7.54618917 45.05391304 -7.55328674 40.21906437 -7.56458765 35.38420826 C-7.57541667 30.72231011 -7.58142506 26.06042885 -7.58402544 21.3985191 C-7.58587967 19.61583842 -7.58950023 17.83315872 -7.59487826 16.05048519 C-7.60208889 13.5624217 -7.60313913 11.07442888 -7.60267359 8.5863567 C-7.60626887 7.84189289 -7.60986414 7.09742909 -7.61356837 6.33040577 C-7.59975963 -0.44513192 -6.64156785 0.01558558 0 0 Z M20.5108518 28.12908131 C20.5108518 45.61908131 20.5108518 63.10908131 20.5108518 81.12908131 C38.0008518 81.12908131 55.4908518 81.12908131 73.5108518 81.12908131 C73.5108518 63.63908131 73.5108518 46.14908131 73.5108518 28.12908131 C56.0208518 28.12908131 38.5308518 28.12908131 20.5108518 28.12908131 Z M128.5108518 28.12908131 C128.5108518 45.61908131 128.5108518 63.10908131 128.5108518 81.12908131 C146.0008518 81.12908131 163.4908518 81.12908131 181.5108518 81.12908131 C181.5108518 63.63908131 181.5108518 46.14908131 181.5108518 28.12908131 C164.0208518 28.12908131 146.5308518 28.12908131 128.5108518 28.12908131 Z M-6.4891482 109.12908131 C-6.4891482 126.61908131 -6.4891482 144.10908131 -6.4891482 162.12908131 C37.7308518 162.12908131 81.9508518 162.12908131 127.5108518 162.12908131 C127.5108518 144.63908131 127.5108518 127.14908131 127.5108518 109.12908131 C83.2908518 109.12908131 39.0708518 109.12908131 -6.4891482 109.12908131 Z " fill="#000000" transform="translate(87.48914819955826,132.8709186911583)"/>
</svg>
