<?xml version="1.0" encoding="UTF-8"?>
<svg version="1.1" xmlns="http://www.w3.org/2000/svg" width="512" height="452">
<path d="M0 0 C19.14 0 38.28 0 58 0 C58 9.24 58 18.48 58 28 C86.05 28 114.1 28 143 28 C143 37.57 143 47.14 143 57 C152.57 57 162.14 57 172 57 C172 66.24 172 75.48 172 85 C181.24 85 190.48 85 200 85 C200 94.57 200 104.14 200 114 C209.57 114 219.14 114 229 114 C229 151.62 229 189.24 229 228 C219.43 228 209.86 228 200 228 C200 256.38 200 284.76 200 314 C190.76 314 181.52 314 172 314 C172 342.05 172 370.1 172 399 C77.62 399 -16.76 399 -114 399 C-114 370.95 -114 342.9 -114 314 C-123.24 314 -132.48 314 -142 314 C-142 285.62 -142 257.24 -142 228 C-151.57 228 -161.14 228 -171 228 C-171 190.38 -171 152.76 -171 114 C-161.43 114 -151.86 114 -142 114 C-142 104.43 -142 94.86 -142 85 C-132.76 85 -123.52 85 -114 85 C-114 75.76 -114 66.52 -114 57 C-104.43 57 -94.86 57 -85 57 C-85 47.43 -85 37.86 -85 28 C-56.95 28 -28.9 28 0 28 C0 18.76 0 9.52 0 0 Z " fill="#EA9000" transform="translate(227,26)"/>
<path d="M0 0 C18.81 0 37.62 0 57 0 C57 9.24 57 18.48 57 28 C132.24 28 207.48 28 285 28 C285 18.76 285 9.52 285 0 C303.81 0 322.62 0 342 0 C342 28.38 342 56.76 342 86 C332.76 86 323.52 86 314 86 C314 114.05 314 142.1 314 171 C219.62 171 125.24 171 28 171 C28 142.95 28 114.9 28 86 C18.76 86 9.52 86 0 86 C0 57.62 0 29.24 0 0 Z " fill="#452A29" transform="translate(85,254)"/>
<path d="M0 0 C18.81 0 37.62 0 57 0 C57 9.24 57 18.48 57 28 C66.57 28 76.14 28 86 28 C86 37.24 86 46.48 86 56 C104.48 56 122.96 56 142 56 C142 46.76 142 37.52 142 28 C151.57 28 161.14 28 171 28 C171 18.76 171 9.52 171 0 C189.81 0 208.62 0 228 0 C228 9.24 228 18.48 228 28 C237.24 28 246.48 28 256 28 C256 37.24 256 46.48 256 56 C246.76 56 237.52 56 228 56 C228 65.57 228 75.14 228 85 C237.24 85 246.48 85 256 85 C256 75.76 256 66.52 256 57 C265.24 57 274.48 57 284 57 C284 75.48 284 93.96 284 113 C274.76 113 265.52 113 256 113 C256 122.24 256 131.48 256 141 C237.19 141 218.38 141 199 141 C199 150.57 199 160.14 199 170 C180.19 170 161.38 170 142 170 C142 160.76 142 151.52 142 142 C132.76 142 123.52 142 114 142 C114 151.24 114 160.48 114 170 C85.95 170 57.9 170 29 170 C29 160.43 29 150.86 29 141 C10.19 141 -8.62 141 -28 141 C-28 131.76 -28 122.52 -28 113 C-18.76 113 -9.52 113 0 113 C0 103.43 0 93.86 0 84 C-9.24 84 -18.48 84 -28 84 C-28 65.52 -28 47.04 -28 28 C-18.76 28 -9.52 28 0 28 C0 18.76 0 9.52 0 0 Z " fill="#FECC3A" transform="translate(142,84)"/>
<path d="M0 0 C19.14 0 38.28 0 58 0 C58 9.24 58 18.48 58 28 C86.05 28 114.1 28 143 28 C143 37.57 143 47.14 143 57 C152.57 57 162.14 57 172 57 C172 66.24 172 75.48 172 85 C181.24 85 190.48 85 200 85 C200 94.57 200 104.14 200 114 C190.43 114 180.86 114 171 114 C171 104.76 171 95.52 171 86 C161.76 86 152.52 86 143 86 C143 76.76 143 67.52 143 58 C124.19 58 105.38 58 86 58 C86 67.24 86 76.48 86 86 C76.43 86 66.86 86 57 86 C57 95.24 57 104.48 57 114 C38.52 114 20.04 114 1 114 C1 104.76 1 95.52 1 86 C-8.57 86 -18.14 86 -28 86 C-28 76.76 -28 67.52 -28 58 C-46.81 58 -65.62 58 -85 58 C-85 67.24 -85 76.48 -85 86 C-94.24 86 -103.48 86 -113 86 C-113 95.24 -113 104.48 -113 114 C-122.57 114 -132.14 114 -142 114 C-142 104.43 -142 94.86 -142 85 C-132.76 85 -123.52 85 -114 85 C-114 75.76 -114 66.52 -114 57 C-104.43 57 -94.86 57 -85 57 C-85 47.43 -85 37.86 -85 28 C-56.95 28 -28.9 28 0 28 C0 18.76 0 9.52 0 0 Z " fill="#9F0301" transform="translate(227,26)"/>
<path d="M0 0 C9.57 0 19.14 0 29 0 C29 28.38 29 56.76 29 86 C38.24 86 47.48 86 57 86 C57 104.48 57 122.96 57 142 C132.24 142 207.48 142 285 142 C285 123.19 285 104.38 285 85 C294.24 85 303.48 85 313 85 C313 56.95 313 28.9 313 0 C322.57 0 332.14 0 342 0 C342 28.38 342 56.76 342 86 C332.76 86 323.52 86 314 86 C314 114.05 314 142.1 314 171 C219.62 171 125.24 171 28 171 C28 142.95 28 114.9 28 86 C18.76 86 9.52 86 0 86 C0 57.62 0 29.24 0 0 Z " fill="#000000" transform="translate(85,254)"/>
<path d="M0 0 C19.14 0 38.28 0 58 0 C58 9.24 58 18.48 58 28 C86.05 28 114.1 28 143 28 C143 37.57 143 47.14 143 57 C114.95 57 86.9 57 58 57 C58 47.76 58 38.52 58 29 C39.19 29 20.38 29 1 29 C1 38.24 1 47.48 1 57 C-27.38 57 -55.76 57 -85 57 C-85 47.43 -85 37.86 -85 28 C-56.95 28 -28.9 28 0 28 C0 18.76 0 9.52 0 0 Z " fill="#000000" transform="translate(227,26)"/>
<path d="M0 0 C9.57 0 19.14 0 29 0 C29 9.24 29 18.48 29 28 C47.48 28 65.96 28 85 28 C85 18.76 85 9.52 85 0 C94.57 0 104.14 0 114 0 C114 9.24 114 18.48 114 28 C104.76 28 95.52 28 86 28 C86 37.57 86 47.14 86 57 C67.19 57 48.38 57 29 57 C29 66.24 29 75.48 29 85 C19.43 85 9.86 85 0 85 C0 75.43 0 65.86 0 56 C9.24 56 18.48 56 28 56 C28 46.76 28 37.52 28 28 C18.76 28 9.52 28 0 28 C0 18.76 0 9.52 0 0 Z " fill="#EB8F00" transform="translate(199,112)"/>
<path d="M0 0 C9.57 0 19.14 0 29 0 C29 37.62 29 75.24 29 114 C19.43 114 9.86 114 0 114 C0 76.38 0 38.76 0 0 Z " fill="#000000" transform="translate(427,140)"/>
<path d="M0 0 C9.57 0 19.14 0 29 0 C29 37.62 29 75.24 29 114 C19.43 114 9.86 114 0 114 C0 76.38 0 38.76 0 0 Z " fill="#000000" transform="translate(56,140)"/>
<path d="M0 0 C18.81 0 37.62 0 57 0 C57 9.24 57 18.48 57 28 C66.24 28 75.48 28 85 28 C85 37.24 85 46.48 85 56 C66.19 56 47.38 56 28 56 C28 46.76 28 37.52 28 28 C18.76 28 9.52 28 0 28 C0 18.76 0 9.52 0 0 Z " fill="#EB9505" transform="translate(313,84)"/>
<path d="M0 0 C18.81 0 37.62 0 57 0 C57 9.24 57 18.48 57 28 C47.76 28 38.52 28 29 28 C29 37.24 29 46.48 29 56 C19.43 56 9.86 56 0 56 C0 37.52 0 19.04 0 0 Z " fill="#EB9505" transform="translate(142,84)"/>
<path d="M0 0 C9.24 0 18.48 0 28 0 C28 8.91 28 17.82 28 27 C37.24 27 46.48 27 56 27 C56 36.57 56 46.14 56 56 C37.52 56 19.04 56 0 56 C0 37.52 0 19.04 0 0 Z " fill="#EC9302" transform="translate(86,141)"/>
<path d="M0 0 C9.57 0 19.14 0 29 0 C29 9.24 29 18.48 29 28 C38.24 28 47.48 28 57 28 C57 37.57 57 47.14 57 57 C47.43 57 37.86 57 28 57 C28 47.76 28 38.52 28 29 C18.76 29 9.52 29 0 29 C0 19.43 0 9.86 0 0 Z " fill="#020100" transform="translate(370,83)"/>
<path d="M0 0 C9.57 0 19.14 0 29 0 C29 9.57 29 19.14 29 29 C19.76 29 10.52 29 1 29 C1 38.24 1 47.48 1 57 C-8.57 57 -18.14 57 -28 57 C-28 47.43 -28 37.86 -28 28 C-18.76 28 -9.52 28 0 28 C0 18.76 0 9.52 0 0 Z " fill="#020100" transform="translate(113,83)"/>
<path d="M0 0 C9.24 0 18.48 0 28 0 C28 9.57 28 19.14 28 29 C19.09 29 10.18 29 1 29 C1 38.24 1 47.48 1 57 C-8.57 57 -18.14 57 -28 57 C-28 47.76 -28 38.52 -28 29 C-18.76 29 -9.52 29 0 29 C0 19.43 0 9.86 0 0 Z " fill="#664427" transform="translate(341,339)"/>
<path d="M0 0 C9.24 0 18.48 0 28 0 C28 9.24 28 18.48 28 28 C18.76 28 9.52 28 0 28 C0 18.76 0 9.52 0 0 Z " fill="#674527" transform="translate(256,368)"/>
<path d="M0 0 C9.24 0 18.48 0 28 0 C28 9.24 28 18.48 28 28 C18.76 28 9.52 28 0 28 C0 18.76 0 9.52 0 0 Z " fill="#664427" transform="translate(199,368)"/>
<path d="M0 0 C9.24 0 18.48 0 28 0 C28 9.24 28 18.48 28 28 C18.76 28 9.52 28 0 28 C0 18.76 0 9.52 0 0 Z " fill="#664427" transform="translate(285,340)"/>
<path d="M0 0 C9.24 0 18.48 0 28 0 C28 9.24 28 18.48 28 28 C18.76 28 9.52 28 0 28 C0 18.76 0 9.52 0 0 Z " fill="#664427" transform="translate(228,340)"/>
<path d="M0 0 C9.24 0 18.48 0 28 0 C28 9.24 28 18.48 28 28 C18.76 28 9.52 28 0 28 C0 18.76 0 9.52 0 0 Z " fill="#664427" transform="translate(171,340)"/>
<path d="M0 0 C9.24 0 18.48 0 28 0 C28 9.24 28 18.48 28 28 C18.76 28 9.52 28 0 28 C0 18.76 0 9.52 0 0 Z " fill="#674527" transform="translate(370,311)"/>
<path d="M0 0 C9.24 0 18.48 0 28 0 C28 9.24 28 18.48 28 28 C18.76 28 9.52 28 0 28 C0 18.76 0 9.52 0 0 Z " fill="#674527" transform="translate(114,311)"/>
<path d="M0 0 C9.24 0 18.48 0 28 0 C28 9.24 28 18.48 28 28 C18.76 28 9.52 28 0 28 C0 18.76 0 9.52 0 0 Z " fill="#EC9100" transform="translate(313,169)"/>
<path d="M0 0 C9.24 0 18.48 0 28 0 C28 9.24 28 18.48 28 28 C18.76 28 9.52 28 0 28 C0 18.76 0 9.52 0 0 Z " fill="#EC9100" transform="translate(114,169)"/>
<path d="M0 0 C9.24 0 18.48 0 28 0 C28 9.24 28 18.48 28 28 C18.76 28 9.52 28 0 28 C0 18.76 0 9.52 0 0 Z " fill="#FECC3A" transform="translate(86,169)"/>
<path d="M0 0 C9.24 0 18.48 0 28 0 C28 9.24 28 18.48 28 28 C18.76 28 9.52 28 0 28 C0 18.76 0 9.52 0 0 Z " fill="#FFCD3B" transform="translate(370,112)"/>
<path d="M0 0 C9.24 0 18.48 0 28 0 C28 9.24 28 18.48 28 28 C18.76 28 9.52 28 0 28 C0 18.76 0 9.52 0 0 Z " fill="#FFFFFF" transform="translate(256,55)"/>
<path d="M0 0 C8.91 0 17.82 0 27 0 C27 9.24 27 18.48 27 28 C18.09 28 9.18 28 0 28 C0 18.76 0 9.52 0 0 Z " fill="#674527" transform="translate(143,368)"/>
<path d="M0 0 C8.91 0 17.82 0 27 0 C27 9.24 27 18.48 27 28 C18.09 28 9.18 28 0 28 C0 18.76 0 9.52 0 0 Z " fill="#EC9100" transform="translate(342,112)"/>
<path d="M0 0 C8.91 0 17.82 0 27 0 C27 9.24 27 18.48 27 28 C18.09 28 9.18 28 0 28 C0 18.76 0 9.52 0 0 Z " fill="#EC9100" transform="translate(143,112)"/>
<path d="M0 0 C8.91 0 17.82 0 27 0 C27 8.91 27 17.82 27 27 C18.09 27 9.18 27 0 27 C0 18.09 0 9.18 0 0 Z " fill="#FFCD3B" transform="translate(342,84)"/>
<path d="M0 0 C8.91 0 17.82 0 27 0 C27 8.91 27 17.82 27 27 C18.09 27 9.18 27 0 27 C0 18.09 0 9.18 0 0 Z " fill="#FFCD3B" transform="translate(143,84)"/>
<path d="M0 0 C0.33 0 0.66 0 1 0 C1 9.24 1 18.48 1 28 C19.48 28 37.96 28 57 28 C57 18.76 57 9.52 57 0 C57.33 0 57.66 0 58 0 C58 9.57 58 19.14 58 29 C39.19 29 20.38 29 1 29 C1 38.24 1 47.48 1 57 C0.67 57 0.34 57 0 57 C0 47.76 0 38.52 0 29 C-9.24 29 -18.48 29 -28 29 C-28 28.67 -28 28.34 -28 28 C-18.76 28 -9.52 28 0 28 C0 18.76 0 9.52 0 0 Z " fill="#F4AD1C" transform="translate(227,140)"/>
</svg>
