<?xml version="1.0" encoding="UTF-8"?>
<svg version="1.1" xmlns="http://www.w3.org/2000/svg" width="565" height="512">
<path d="M0 0 C29.7 0 59.4 0 90 0 C90 10.56 90 21.12 90 32 C99.57 32 109.14 32 119 32 C119 42.56 119 53.12 119 64 C128.9 64 138.8 64 149 64 C149 74.56 149 85.12 149 96 C158.9 96 168.8 96 179 96 C179 106.56 179 117.12 179 128 C188.9 128 198.8 128 209 128 C209 149.12 209 170.24 209 192 C189.2 192 169.4 192 149 192 C149 213.12 149 234.24 149 256 C158.9 256 168.8 256 179 256 C179 277.12 179 298.24 179 320 C169.1 320 159.2 320 149 320 C149 330.56 149 341.12 149 352 C41.09 352 -66.82 352 -178 352 C-178 341.44 -178 330.88 -178 320 C-187.9 320 -197.8 320 -208 320 C-208 298.88 -208 277.76 -208 256 C-198.1 256 -188.2 256 -178 256 C-178 234.88 -178 213.76 -178 192 C-168.43 192 -158.86 192 -149 192 C-149 181.44 -149 170.88 -149 160 C-139.1 160 -129.2 160 -119 160 C-119 149.44 -119 138.88 -119 128 C-109.1 128 -99.2 128 -89 128 C-89 117.44 -89 106.88 -89 96 C-79.43 96 -69.86 96 -60 96 C-60 85.44 -60 74.88 -60 64 C-50.1 64 -40.2 64 -30 64 C-30 53.44 -30 42.88 -30 32 C-20.1 32 -10.2 32 0 32 C0 21.44 0 10.88 0 0 Z M60 96 C60 106.56 60 117.12 60 128 C69.57 128 79.14 128 89 128 C89 117.44 89 106.88 89 96 C79.43 96 69.86 96 60 96 Z M90 128 C90 138.56 90 149.12 90 160 C99.57 160 109.14 160 119 160 C119 149.44 119 138.88 119 128 C109.43 128 99.86 128 90 128 Z M119 160 C119 170.56 119 181.12 119 192 C128.57 192 138.14 192 148 192 C148 181.44 148 170.88 148 160 C138.43 160 128.86 160 119 160 Z " fill="#FE0000" transform="translate(267,64)"/>
<path d="M0 0 C127.71 0 255.42 0 387 0 C387 21.12 387 42.24 387 64 C377.1 64 367.2 64 357 64 C357 74.56 357 85.12 357 96 C249.09 96 141.18 96 30 96 C30 85.44 30 74.88 30 64 C20.1 64 10.2 64 0 64 C0 42.88 0 21.76 0 0 Z " fill="#FEFEFE" transform="translate(59,320)"/>
<path d="M0 0 C107.91 0 215.82 0 327 0 C327 10.56 327 21.12 327 32 C219.09 32 111.18 32 0 32 C0 21.44 0 10.88 0 0 Z " fill="#000000" transform="translate(89,384)"/>
<path d="M0 0 C9.9 0 19.8 0 30 0 C30 10.56 30 21.12 30 32 C39.9 32 49.8 32 60 32 C60 21.44 60 10.88 60 0 C69.9 0 79.8 0 90 0 C90 21.12 90 42.24 90 64 C70.2 64 50.4 64 30 64 C30 85.12 30 106.24 30 128 C20.1 128 10.2 128 0 128 C0 106.88 0 85.76 0 64 C9.57 64 19.14 64 29 64 C29 53.44 29 42.88 29 32 C19.43 32 9.86 32 0 32 C0 21.44 0 10.88 0 0 Z " fill="#000000" transform="translate(386,192)"/>
<path d="M0 0 C9.9 0 19.8 0 30 0 C30 10.56 30 21.12 30 32 C20.43 32 10.86 32 1 32 C1 42.56 1 53.12 1 64 C-8.9 64 -18.8 64 -29 64 C-29 74.56 -29 85.12 -29 96 C-38.9 96 -48.8 96 -59 96 C-59 85.44 -59 74.88 -59 64 C-49.43 64 -39.86 64 -30 64 C-30 53.44 -30 42.88 -30 32 C-20.1 32 -10.2 32 0 32 C0 21.44 0 10.88 0 0 Z " fill="#010000" transform="translate(237,96)"/>
<path d="M0 0 C9.9 0 19.8 0 30 0 C30 10.56 30 21.12 30 32 C20.43 32 10.86 32 1 32 C1 53.12 1 74.24 1 96 C-8.9 96 -18.8 96 -29 96 C-29 74.88 -29 53.76 -29 32 C-19.43 32 -9.86 32 0 32 C0 21.44 0 10.88 0 0 Z " fill="#010000" transform="translate(118,224)"/>
<path d="M0 0 C9.9 0 19.8 0 30 0 C30 10.56 30 21.12 30 32 C20.43 32 10.86 32 1 32 C1 42.56 1 53.12 1 64 C10.57 64 20.14 64 30 64 C30 74.56 30 85.12 30 96 C20.1 96 10.2 96 0 96 C0 85.44 0 74.88 0 64 C-9.57 64 -19.14 64 -29 64 C-29 53.44 -29 42.88 -29 32 C-19.43 32 -9.86 32 0 32 C0 21.44 0 10.88 0 0 Z " fill="#010000" transform="translate(356,160)"/>
<path d="M0 0 C29.7 0 59.4 0 90 0 C90 10.56 90 21.12 90 32 C60.3 32 30.6 32 0 32 C0 21.44 0 10.88 0 0 Z " fill="#000000" transform="translate(267,64)"/>
<path d="M0 0 C9.9 0 19.8 0 30 0 C30 21.12 30 42.24 30 64 C20.1 64 10.2 64 0 64 C0 42.88 0 21.76 0 0 Z " fill="#000000" transform="translate(416,320)"/>
<path d="M0 0 C9.9 0 19.8 0 30 0 C30 21.12 30 42.24 30 64 C20.1 64 10.2 64 0 64 C0 42.88 0 21.76 0 0 Z " fill="#000000" transform="translate(59,320)"/>
<path d="M0 0 C9.9 0 19.8 0 30 0 C30 10.56 30 21.12 30 32 C20.1 32 10.2 32 0 32 C0 21.44 0 10.88 0 0 Z " fill="#FAFAFA" transform="translate(416,192)"/>
<path d="M0 0 C9.9 0 19.8 0 30 0 C30 10.56 30 21.12 30 32 C20.1 32 10.2 32 0 32 C0 21.44 0 10.88 0 0 Z " fill="#000000" transform="translate(148,192)"/>
<path d="M0 0 C9.9 0 19.8 0 30 0 C30 10.56 30 21.12 30 32 C20.1 32 10.2 32 0 32 C0 21.44 0 10.88 0 0 Z " fill="#000000" transform="translate(416,160)"/>
<path d="M0 0 C9.9 0 19.8 0 30 0 C30 10.56 30 21.12 30 32 C20.1 32 10.2 32 0 32 C0 21.44 0 10.88 0 0 Z " fill="#FC0000" transform="translate(386,160)"/>
<path d="M0 0 C9.9 0 19.8 0 30 0 C30 10.56 30 21.12 30 32 C20.1 32 10.2 32 0 32 C0 21.44 0 10.88 0 0 Z " fill="#000000" transform="translate(297,160)"/>
<path d="M0 0 C9.9 0 19.8 0 30 0 C30 10.56 30 21.12 30 32 C20.1 32 10.2 32 0 32 C0 21.44 0 10.88 0 0 Z " fill="#000000" transform="translate(386,128)"/>
<path d="M0 0 C9.57 0 19.14 0 29 0 C29 10.56 29 21.12 29 32 C19.43 32 9.86 32 0 32 C0 21.44 0 10.88 0 0 Z " fill="#000000" transform="translate(327,128)"/>
<path d="M0 0 C9.57 0 19.14 0 29 0 C29 10.56 29 21.12 29 32 C19.43 32 9.86 32 0 32 C0 21.44 0 10.88 0 0 Z " fill="#000000" transform="translate(357,96)"/>
</svg>
