<svg width="21" height="21" viewBox="0 0 21 21" fill="none" xmlns="http://www.w3.org/2000/svg">
<path d="M20.6272 9.57206L11.4288 0.384563C11.1722 0.128297 10.8358 0 10.4998 0C10.1637 0 9.82729 0.128297 9.57072 0.384563L0.372284 9.57206C-0.140858 10.0859 -0.115233 10.8898 0.397908 11.4023C0.912364 11.9175 1.66434 11.9933 2.17912 11.4791L2.62787 11.0306V19.6875C2.62787 20.413 3.21559 21 3.94194 21H9.19819V15.75H11.8263V21H17.0826C17.8089 21 18.3966 20.413 18.3966 19.6875V11.0562L18.7892 11.4483C19.3023 11.9608 20.0865 11.9149 20.6013 11.402C21.1148 10.8898 21.1417 10.0846 20.6272 9.57206Z" fill="#FBECE6"/>
</svg>
