<svg width="323" height="68" viewBox="0 0 323 68" fill="none" xmlns="http://www.w3.org/2000/svg">
<g filter="url(#filter0_d_76_205)">
<rect x="4" width="315" height="60" rx="30" fill="#FEE500"/>
<path fill-rule="evenodd" clip-rule="evenodd" d="M104 22.5332C99.5815 22.5332 96 25.3003 96 28.713C96 30.8355 97.3853 32.7065 99.4947 33.8194L98.6071 37.0617C98.5287 37.3482 98.8564 37.5765 99.108 37.4105L102.999 34.8428C103.327 34.8745 103.661 34.8929 104 34.8929C108.418 34.8929 112 32.126 112 28.713C112 25.3003 108.418 22.5332 104 22.5332Z" fill="black"/>
<path d="M136.658 22.558C136.64 28.048 134.138 31.72 129.548 34.132L128.36 32.8C130.682 31.738 132.626 30.028 133.724 27.814L129.026 28.318L128.738 26.716L134.336 26.302C134.534 25.582 134.678 24.844 134.732 24.052H129.548V22.558H136.658ZM140.996 20.884V27.148H143.48V28.678H140.996V36.922H139.142V20.884H140.996ZM152.232 22.558C152.214 28.048 149.712 31.72 145.122 34.132L143.934 32.8C146.256 31.738 148.2 30.028 149.298 27.814L144.6 28.318L144.312 26.716L149.91 26.302C150.108 25.582 150.252 24.844 150.306 24.052H145.122V22.558H152.232ZM156.57 20.884V27.148H159.054V28.678H156.57V36.922H154.716V20.884H156.57ZM174.178 34.87H159.688V33.394H165.988V30.658C163.018 30.37 161.128 28.678 161.128 26.284C161.128 23.638 163.45 21.874 166.924 21.874C170.452 21.874 172.756 23.638 172.756 26.284C172.756 28.696 170.83 30.388 167.824 30.676V33.394H174.178V34.87ZM170.902 26.302C170.902 24.592 169.336 23.386 166.924 23.386C164.566 23.386 162.982 24.592 162.982 26.302C162.982 27.994 164.566 29.146 166.924 29.146C169.318 29.146 170.902 27.994 170.902 26.302ZM193.077 30.73H188.127V33.412H194.481V34.888H179.991V33.412H186.291V30.73H181.845V25.546H190.773V23.476H181.791V22H192.609V27.04H183.699V29.236H193.077V30.73ZM210.055 34.582H195.565V33.088H210.055V34.582ZM208.165 22.612C208.165 26.86 207.895 29.866 207.463 31.972L205.645 31.738C206.041 30.136 206.311 26.662 206.311 24.07H197.239V22.612H208.165ZM224.334 32.512H222.498V20.884H224.334V32.512ZM224.712 36.454H213.732V31.414H215.568V34.978H224.712V36.454ZM219.834 25.996C219.834 28.282 218.178 29.92 215.73 29.92C213.282 29.92 211.59 28.282 211.59 26.014C211.59 23.728 213.264 22.072 215.73 22.072C218.178 22.072 219.834 23.71 219.834 25.996ZM217.998 25.996C217.998 24.592 217.134 23.602 215.73 23.602C214.362 23.602 213.444 24.628 213.444 25.996C213.444 27.31 214.362 28.354 215.73 28.354C217.134 28.354 217.998 27.31 217.998 25.996Z" fill="black" fill-opacity="0.85"/>
</g>
<defs>
<filter id="filter0_d_76_205" x="0" y="0" width="323" height="68" filterUnits="userSpaceOnUse" color-interpolation-filters="sRGB">
<feFlood flood-opacity="0" result="BackgroundImageFix"/>
<feColorMatrix in="SourceAlpha" type="matrix" values="0 0 0 0 0 0 0 0 0 0 0 0 0 0 0 0 0 0 127 0" result="hardAlpha"/>
<feOffset dy="4"/>
<feGaussianBlur stdDeviation="2"/>
<feComposite in2="hardAlpha" operator="out"/>
<feColorMatrix type="matrix" values="0 0 0 0 0 0 0 0 0 0 0 0 0 0 0 0 0 0 0.25 0"/>
<feBlend mode="normal" in2="BackgroundImageFix" result="effect1_dropShadow_76_205"/>
<feBlend mode="normal" in="SourceGraphic" in2="effect1_dropShadow_76_205" result="shape"/>
</filter>
</defs>
</svg>
