<?xml version="1.0" encoding="UTF-8"?>
<svg version="1.1" xmlns="http://www.w3.org/2000/svg" width="188" height="163">
<path d="M0 0 C33.66 0 67.32 0 102 0 C102 6.93 102 13.86 102 21 C108.6 21 115.2 21 122 21 C122 41.13 122 61.26 122 82 C115.4 82 108.8 82 102 82 C102 88.6 102 95.2 102 102 C68.34 102 34.68 102 0 102 C0 95.4 0 88.8 0 82 C-6.6 82 -13.2 82 -20 82 C-20 61.87 -20 41.74 -20 21 C-13.4 21 -6.8 21 0 21 C0 14.07 0 7.14 0 0 Z " fill="#FA6E92" transform="translate(42,33)"/>
<path d="M0 0 C33.66 0 67.32 0 102 0 C102 6.93 102 13.86 102 21 C68.34 21 34.68 21 0 21 C0 14.07 0 7.14 0 0 Z " fill="#000000" transform="translate(42,33)"/>
<path d="M0 0 C33.66 0 67.32 0 102 0 C102 6.6 102 13.2 102 20 C68.34 20 34.68 20 0 20 C0 13.4 0 6.8 0 0 Z " fill="#000000" transform="translate(42,115)"/>
<path d="M0 0 C6.6 0 13.2 0 20 0 C20 20.13 20 40.26 20 61 C13.4 61 6.8 61 0 61 C0 40.87 0 20.74 0 0 Z " fill="#000000" transform="translate(144,54)"/>
<path d="M0 0 C6.6 0 13.2 0 20 0 C20 20.13 20 40.26 20 61 C13.4 61 6.8 61 0 61 C0 40.87 0 20.74 0 0 Z " fill="#000000" transform="translate(22,54)"/>
<path d="M0 0 C6.6 0 13.2 0 20 0 C20 6.6 20 13.2 20 20 C13.4 20 6.8 20 0 20 C0 13.4 0 6.8 0 0 Z " fill="#060203" transform="translate(103,74)"/>
<path d="M0 0 C6.6 0 13.2 0 20 0 C20 6.6 20 13.2 20 20 C13.4 20 6.8 20 0 20 C0 13.4 0 6.8 0 0 Z " fill="#030101" transform="translate(63,74)"/>
</svg>
