<svg width="31" height="20" viewBox="0 0 31 20" fill="none" xmlns="http://www.w3.org/2000/svg">
<path d="M31 10C31 15.5227 26.5096 20 20.9706 20H10.0294C4.49044 20 0 15.5227 0 10C0 4.47727 4.49044 0 10.0294 0H20.9706C26.5096 0 31 4.47727 31 10Z" fill="#E6AAAA"/>
<path d="M8.5 15C10.433 15 12 12.7614 12 10C12 7.23858 10.433 5 8.5 5C6.567 5 5 7.23858 5 10C5 12.7614 6.567 15 8.5 15Z" fill="#662113"/>
<path d="M22.5 15C24.433 15 26 12.7614 26 10C26 7.23858 24.433 5 22.5 5C20.567 5 19 7.23858 19 10C19 12.7614 20.567 15 22.5 15Z" fill="#662113"/>
</svg>
